<svg width="68" height="82" viewBox="0 0 68 82" fill="none" xmlns="http://www.w3.org/2000/svg">
<g clip-path="url(#clip0_14_216)">
<path d="M39.2346 32.7343L20.4788 39.5456L30.6827 42.8736L35.8194 52.2088L39.2346 32.7343Z" fill="#EB9634"/>
<path d="M6.00511 55.3086L0 64.4404L10.7444 62.0279C9.39531 60.568 8.18373 58.9817 7.13054 57.284C6.73039 56.6379 6.35524 55.9794 6.00511 55.31V55.3086ZM6.95409 25.0047C8.04618 23.1998 9.31889 21.5145 10.7458 19.9721L0 17.5583L6.00511 26.69C6.30384 26.1195 6.61924 25.5573 6.95409 25.0033V25.0047ZM61.9949 26.69L68 17.5583L57.2597 19.9708C58.274 21.0705 59.2133 22.2458 60.0705 23.4912C60.7805 24.5236 61.4224 25.5917 61.9963 26.69H61.9949ZM14.6654 20.8519L14.6168 20.8409C11.8602 23.4404 9.67459 26.558 8.17678 29.9919L8.19624 30.0221C6.73039 33.39 5.91896 37.1001 5.91896 40.9986C5.91896 44.8971 6.73178 48.6086 8.19624 51.9751L8.16706 52.0191C9.66208 55.453 11.8477 58.5638 14.6057 61.1591L14.664 61.1467C18.3988 64.6562 23.1076 67.1594 28.3485 68.2192L33.9993 82V59.6346C23.5967 59.6346 15.1642 51.2919 15.1642 41C15.1642 30.7081 23.5967 22.3654 33.9993 22.3654V0L28.3485 13.7808C23.1076 14.8406 18.3988 17.3438 14.664 20.8533L14.6654 20.8519ZM61.3002 56.5664C60.1539 58.5294 58.7936 60.3604 57.2528 62.0265L67.9986 64.4404L61.9935 55.3086C61.7726 55.732 61.5405 56.1527 61.2988 56.5664H61.3002ZM59.8038 51.9765C61.2696 48.6086 62.081 44.8985 62.081 41C62.081 37.1015 61.2682 33.39 59.8038 30.0235L59.8371 29.9726C58.3407 26.5319 56.1537 23.4239 53.4041 20.8368L53.336 20.8519C49.6151 17.3548 44.9258 14.8571 39.7085 13.7918L41.1562 23.7579C48.0103 26.5443 52.8372 33.214 52.8372 41C52.8372 48.786 47.9783 55.4997 41.0868 58.2696L39.6348 68.2605L39.6515 68.2192C44.8924 67.1594 49.6012 64.6562 53.336 61.1467L53.4027 61.1618C56.1774 58.5651 58.3588 55.4653 59.8468 52.0397L59.8052 51.9765H59.8038Z" fill="#414042"/>
</g>
<defs>
<clipPath id="clip0_14_216">
<rect width="68" height="82" fill="white"/>
</clipPath>
</defs>
</svg>
